<svg id="Layer_1" data-name="Layer 1" xmlns="http://www.w3.org/2000/svg" viewBox="0 0 457.47 157.26"><defs><style>.cls-1,.cls-2,.cls-4,.cls-5,.cls-6,.cls-7,.cls-8{fill:#fff;}.cls-1{fill-rule:evenodd;}.cls-3,.cls-4,.cls-5,.cls-6,.cls-7,.cls-8{isolation:isolate;}.cls-4,.cls-5,.cls-6,.cls-7,.cls-8{font-size:120px;font-family:NexaBold, Nexa Bold;}.cls-4{letter-spacing:-0.11em;}.cls-5{letter-spacing:-0.02em;}.cls-6{letter-spacing:-0.02em;}.cls-7{letter-spacing:-0.03em;}.cls-8{letter-spacing:-0.01em;}</style></defs><path class="cls-1" d="M68.63,107.46A69.63,69.63,0,0,0,19,72.34a60.19,60.19,0,0,1,3.58-14.6,84.6,84.6,0,0,1,54.13,34.4,88.47,88.47,0,0,0-8.06,15.32Zm-6.45,30.08c.1-2.75.32-5.47.67-8.18A56.45,56.45,0,0,0,18.9,85.71,59.78,59.78,0,0,0,23,102.25a41.73,41.73,0,0,1,25.2,29.23A60.44,60.44,0,0,0,62.18,137.54Z" transform="translate(-3.64 -3.89)"/><path class="cls-1" d="M56.75,67.18A69.53,69.53,0,0,0,76.54,18.87a60.44,60.44,0,0,1,15,1.22,84.49,84.49,0,0,1-23,56.47,90.11,90.11,0,0,0-11.78-9.38ZM27.85,54.67a87.63,87.63,0,0,1,16.9,5.8A56.45,56.45,0,0,0,63.32,20.92a60,60,0,0,0-15.67,6.71A41.82,41.82,0,0,1,27.85,54.67Z" transform="translate(-3.64 -3.89)"/><path class="cls-1" d="M89.48,51a69.63,69.63,0,0,0,49.79,35.58,59.77,59.77,0,0,1-3.6,14.6A84.56,84.56,0,0,1,81.52,66.51a89,89,0,0,0,8-15.56Zm6.09-29.88c-.06,2.19-.2,4.37-.42,6.52a56.45,56.45,0,0,0,44.23,45.57,60.15,60.15,0,0,0-4.11-16.54,41.73,41.73,0,0,1-25.15-29.28,60.3,60.3,0,0,0-14.55-6.32Z" transform="translate(-3.64 -3.89)"/><path class="cls-1" d="M101.53,91.64a69.62,69.62,0,0,0-20.34,48.27,60,60,0,0,1-15-1.35A84.55,84.55,0,0,1,89.76,82.24,88.69,88.69,0,0,0,101.53,91.64Zm29.17,12.62a87.7,87.7,0,0,1-17.13-5.86A56.49,56.49,0,0,0,94.43,138a60,60,0,0,0,15.73-6.57A41.82,41.82,0,0,1,130.7,104.26Z" transform="translate(-3.64 -3.89)"/><path class="cls-1" d="M12.81,115.46a75.56,75.56,0,0,1-.09-72,15.82,15.82,0,0,0,6,3.73,68.52,68.52,0,0,0,.08,64.51A15.65,15.65,0,0,0,12.81,115.46Z" transform="translate(-3.64 -3.89)"/><path class="cls-1" d="M124.75,139.53a75.49,75.49,0,0,1-91.61-.29,15.89,15.89,0,0,0,4.64-5.34,68.42,68.42,0,0,0,82.36.26A15.8,15.8,0,0,0,124.75,139.53Z" transform="translate(-3.64 -3.89)"/><path class="cls-1" d="M145.52,43.42a75.57,75.57,0,0,1-.3,72.46,15.84,15.84,0,0,0-6-3.79,68.52,68.52,0,0,0,.26-64.93A15.75,15.75,0,0,0,145.52,43.42Z" transform="translate(-3.64 -3.89)"/><path class="cls-1" d="M79.13,3.89a75.14,75.14,0,0,1,46.1,15.71,15.78,15.78,0,0,0-4.64,5.34,68.43,68.43,0,0,0-82.95,0A15.56,15.56,0,0,0,33,19.64,75.15,75.15,0,0,1,79.13,3.89Z" transform="translate(-3.64 -3.89)"/><circle class="cls-2" cx="20.27" cy="122.66" r="10.61"/><path class="cls-1" d="M34.26,30.66A10.6,10.6,0,1,1,22.1,21.87a10.6,10.6,0,0,1,12.16,8.79Z" transform="translate(-3.64 -3.89)"/><circle class="cls-2" cx="130.8" cy="28.41" r="10.61"/><path class="cls-1" d="M123.57,128.49a10.61,10.61,0,1,1,12.08,8.9h0a10.6,10.6,0,0,1-12.08-8.88Z" transform="translate(-3.64 -3.89)"/><g class="cls-3"><text class="cls-4" transform="translate(168.4 120.3) scale(1.05 1)">T</text><text class="cls-5" transform="translate(231.46 120.3) scale(1.05 1)">r</text><text class="cls-6" transform="translate(283.91 120.3) scale(1.05 1)">i</text><text class="cls-7" transform="translate(310.09 120.3) scale(1.05 1)">b</text><text class="cls-8" transform="translate(385.14 120.3) scale(1.05 1)">e</text></g></svg>